#!OML:ASF F:\VICON\USERDATA\INSTALL\rory3\rory3.ASF
:FULLY-SPECIFIED
:DEGREES
1429
root -1.32845 17.6487 -5.13309 23.8384 -36.8108 -0.993288
lowerback 14.3257 -1.85444 -2.3366
upperback 7.57261 -2.81116 5.62934
thorax 0.415505 -1.68215 7.67175
lowerneck -11.97 -4.42654 -11.944
upperneck 32.1459 -6.70354 8.71746
head 13.548 -3.40472 4.51281
rclavicle -1.70955e-014 2.70347e-014
rhumerus 10.7328 -33.5574 -74.4782
rradius 28.5121
rwrist -8.82001
rhand -34.5395 -25.3116
rfingers 7.12502
rthumb -7.70027 -55.1514
lclavicle -1.70955e-014 2.70347e-014
lhumerus 19.3308 -63.4819 81.7978
lradius 55.9422
lwrist 50.1429
lhand -9.87179 56.498
lfingers 7.12502
lthumb 16.1071 -994.151
rfemur -35.7935 -4.48949 8.44925
rtibia 33.7742
rfoot -16.3368 -10.0474
rtoes -1.68055
lfemur -45.2381 -5.93818 -14.7165
ltibia 31.9239
lfoot -7.72928 -7.80253
ltoes -3.36911
1430
root -1.32732 17.6549 -5.13074 23.8592 -36.5258 -0.954858
lowerback 14.4454 -1.83491 -2.24208
upperback 7.60458 -2.7742 5.7335
thorax 0.382016 -1.66406 7.73172
lowerneck -12.0072 -4.42517 -12.0216
upperneck 32.1392 -6.64536 8.6441
head 13.5465 -3.39398 4.50542
rclavicle -7.55382e-015 -5.00937e-014
rhumerus 11.0523 -33.1887 -74.5177
rradius 28.542
rwrist -8.76267
rhand -34.4864 -25.2183
rfingers 7.12502
rthumb -7.64908 -55.06
lclavicle -7.55382e-015 -5.00937e-014
lhumerus 18.2864 -62.7923 82.9656
lradius 56.0625
lwrist 50.1035
lhand -11.3678 56.5333
lfingers 7.12502
lthumb 14.6661 -994.005
rfemur -35.6936 -4.66818 8.50969
rtibia 33.6613
rfoot -16.2695 -10.1692
rtoes -2.38156
lfemur -45.2122 -5.89285 -14.8007
ltibia 31.6762
lfoot -7.51878 -8.13437
ltoes -2.82193
1431
root -1.32502 17.6632 -5.12966 23.9215 -36.2984 -0.887891
lowerback 14.4758 -1.80056 -2.12415
upperback 7.63712 -2.71536 5.7701
thorax 0.387365 -1.63287 7.69627
lowerneck -12.0281 -4.46006 -11.8812
upperneck 32.1101 -6.63255 8.38088
head 13.5209 -3.39876 4.37355
rclavicle 7.11649e-014 -6.75868e-014
rhumerus 11.3498 -32.6748 -74.5973
rradius 28.6602
rwrist -9.20628
rhand -34.7478 -25.1557
rfingers 7.12502
rthumb -7.90136 -54.988
lclavicle 7.11649e-014 -6.75868e-014
lhumerus 17.4356 -62.1776 83.7654
lradius 56.2002
lwrist 50.2079
lhand -10.3847 56.7413
lfingers 7.12502
lthumb 15.6132 -993.869
rfemur -35.6789 -4.74928 8.49028
rtibia 33.5702
rfoot -16.3692 -10.3916
rtoes -1.83588
lfemur -45.2258 -5.69316 -15
ltibia 31.4276
lfoot -7.28894 -8.55346
ltoes -2.48542
1432
root -1.32366 17.6688 -5.12832 24.0125 -36.1076 -0.791821
lowerback 14.3806 -1.72 -2.02272
upperback 7.68639 -2.6001 5.79522
thorax 0.469061 -1.57579 7.64328
lowerneck -12.0557 -4.53932 -11.6765
upperneck 32.0466 -6.68844 8.09541
head 13.4875 -3.42675 4.20963
rclavicle -4.17448e-014 -4.29375e-014
rhumerus 11.6677 -32.2268 -74.7399
rradius 28.8259
rwrist -9.44217
rhand -34.7839 -25.2096
rfingers 7.12502
rthumb -7.93619 -55.0406
lclavicle -4.17448e-014 -4.29375e-014
lhumerus 16.788 -61.7037 84.2677
lradius 56.3843
lwrist 50.3335
lhand -7.80248 56.6036
lfingers 7.12502
lthumb 18.0989 -994.218
rfemur -35.7367 -4.89316 8.46578
rtibia 33.4917
rfoot -16.4185 -10.5418
rtoes -1.15825
lfemur -45.2534 -5.61408 -15.1509
ltibia 31.1624
lfoot -7.14913 -8.77644
ltoes -2.42989
1433
root -1.32062 17.6737 -5.1274 24.0699 -35.8412 -0.664848
lowerback 14.317 -1.60368 -1.85807
upperback 7.7109 -2.42839 5.83133
thorax 0.496953 -1.48618 7.5607
lowerneck -11.9787 -4.66307 -11.5811
upperneck 31.9443 -6.84862 7.98722
head 13.4397 -3.4933 4.12145
rclavicle 6.79844e-014 -7.95139e-015
rhumerus 11.9421 -31.992 -74.8976
rradius 29.0548
rwrist -9.22764
rhand -34.4966 -25.4302
rfingers 7.12502
rthumb -7.65886 -55.2715
lclavicle 6.79844e-014 -7.95139e-015
lhumerus 16.1609 -61.3983 84.7617
lradius 56.5358
lwrist 50.576
lhand -7.6296 56.163
lfingers 7.12502
lthumb 18.2652 -994.675
rfemur -35.7834 -5.11654 8.45512
rtibia 33.4482
rfoot -16.3421 -10.7179
rtoes -1.81034
lfemur -45.2765 -5.59328 -15.3083
ltibia 30.8446
lfoot -6.95911 -9.09049
ltoes -2.51115
1434
root -1.31905 17.6808 -5.12362 23.9778 -35.6203 -0.405464
lowerback 14.361 -1.4961 -1.85301
upperback 7.70155 -2.28384 5.86997
thorax 0.444197 -1.4123 7.58347
lowerneck -11.8889 -4.78361 -11.7066
upperneck 31.9397 -7.00912 8.02697
head 13.4478 -3.57157 4.13577
rclavicle -3.97569e-015 3.53837e-014
rhumerus 12.1839 -31.3349 -75.0421
rradius 29.2812
rwrist -9.64429
rhand -34.7884 -25.1464
rfingers 7.12502
rthumb -7.94059 -54.9772
lclavicle -3.97569e-015 3.53837e-014
lhumerus 15.1891 -60.943 85.6617
lradius 56.6449
lwrist 50.8765
lhand -8.25093 55.9727
lfingers 7.12502
lthumb 17.6674 -994.81
rfemur -35.7639 -5.35303 8.31091
rtibia 33.4634
rfoot -16.3851 -10.8229
rtoes -2.23249
lfemur -45.1896 -5.52561 -15.6448
ltibia 30.4807
lfoot -6.72416 -9.50081
ltoes -2.7225
1435
root -1.31934 17.6893 -5.12466 23.8986 -35.4049 -0.06579
lowerback 14.4074 -1.41309 -2.01059
upperback 7.61793 -2.18574 5.94311
thorax 0.327207 -1.36337 7.7464
lowerneck -11.721 -4.85344 -11.9211
upperneck 31.9798 -7.09187 8.07272
head 13.4529 -3.62979 4.18299
rclavicle -2.06736e-014 -1.98785e-014
rhumerus 12.4892 -30.5439 -75.2661
rradius 29.438
rwrist -9.87928
rhand -34.9165 -24.7626
rfingers 7.12502
rthumb -8.06421 -54.5887
lclavicle -2.06736e-014 -1.98785e-014
lhumerus 13.9187 -60.3183 86.7693
lradius 56.8713
lwrist 51.2435
lhand -12.4711 55.773
lfingers 7.12502
lthumb 13.603 -994.691
rfemur -35.8137 -5.47469 8.06761
rtibia 33.5028
rfoot -16.5022 -11.0543
rtoes -2.48842
lfemur -45.1641 -5.48815 -16.0184
ltibia 30.0827
lfoot -6.43533 -9.87214
ltoes -2.69818
1436
root -1.32261 17.6934 -5.12806 23.7489 -35.1075 0.295531
lowerback 14.4971 -1.35 -2.09843
upperback 7.58179 -2.10796 5.95789
thorax 0.233998 -1.32271 7.80848
lowerneck -11.6776 -4.92076 -11.9146
upperneck 32.0198 -7.1957 8.07236
head 13.4747 -3.67308 4.16761
rclavicle 6.04305e-014 -7.87187e-014
rhumerus 12.9172 -30.2168 -75.8017
rradius 29.5943
rwrist -9.06658
rhand -34.2353 -24.7527
rfingers 7.12502
rthumb -7.40673 -54.603
lclavicle 6.04305e-014 -7.87187e-014
lhumerus 12.8573 -59.6112 87.51
lradius 57.0628
lwrist 51.449
lhand -12.6764 55.8307
lfingers 7.12502
lthumb 13.4051 -994.621
rfemur -35.7838 -5.62499 7.8302
rtibia 33.5552
rfoot -16.6629 -11.296
rtoes -2.31807
lfemur -45.0691 -5.52287 -16.3781
ltibia 29.6706
lfoot -6.17794 -10.2247
ltoes -2.41757
1437
root -1.32433 17.694 -5.11898 23.4804 -34.8419 0.575424
lowerback 14.6104 -1.24022 -1.97545
upperback 7.62447 -1.94913 5.95839
thorax 0.189815 -1.23914 7.71991
lowerneck -11.6202 -5.05971 -11.947
upperneck 32.0375 -7.39367 8.07933
head 13.4994 -3.75943 4.14656
rclavicle 7.95139e-014 -7.95139e-016
rhumerus 13.2207 -29.8631 -76.2014
rradius 29.8834
rwrist -8.56624
rhand -33.7247 -24.5641
rfingers 7.12502
rthumb -6.91385 -54.4312
lclavicle 7.95139e-014 -7.95139e-016
lhumerus 11.9822 -59.0444 88.0677
lradius 57.246
lwrist 51.8751
lhand -12.9119 55.5168
lfingers 7.12502
lthumb 13.1781 -994.92
rfemur -35.5398 -5.75419 7.60196
rtibia 33.5935
rfoot -16.8481 -11.3842
rtoes -2.04594
lfemur -44.7556 -5.59325 -16.7167
ltibia 29.2608
lfoot -5.9603 -10.4859
ltoes -2.4611
1438
root -1.32527 17.6946 -5.10529 23.2882 -34.6128 0.742527
lowerback 14.684 -1.02272 -1.81991
upperback 7.63551 -1.64342 6.05334
thorax 0.114869 -1.08206 7.69361
lowerneck -11.6128 -5.26179 -11.9716
upperneck 32.1278 -7.65748 8.00426
head 13.5722 -3.88137 4.08147
rclavicle 1.98785e-014 1.59028e-014
rhumerus 13.3693 -29.2796 -76.309
rradius 30.2755
rwrist -8.97039
rhand -33.7862 -24.2289
rfingers 7.12502
rthumb -6.97316 -54.094
lclavicle 1.98785e-014 1.59028e-014
lhumerus 11.0321 -58.6872 88.7755
lradius 57.5664
lwrist 52.4196
lhand -13.607 55.0271
lfingers 7.12502
lthumb 12.5081 -995.367
rfemur -35.3107 -5.70971 7.39818
rtibia 33.6157
rfoot -17.1429 -11.5512
rtoes -1.61675
lfemur -44.4537 -5.76192 -16.8902
ltibia 28.8717
lfoot -5.80013 -10.5718
ltoes -2.95805
1439
root -1.32682 17.7004 -5.09582 23.1901 -34.3079 0.902111
lowerback 14.7882 -0.832439 -1.77638
upperback 7.55427 -1.3793 6.24442
thorax -0.060302 -0.946063 7.84579
lowerneck -11.5132 -5.43792 -12.1177
upperneck 32.1841 -7.87807 7.97385
head 13.6129 -3.99611 4.06288
rclavicle -8.42847e-014 7.79236e-014
rhumerus 13.4143 -28.4349 -76.342
rradius 30.767
rwrist -9.40271
rhand -33.9267 -24.2339
rfingers 7.12502
rthumb -7.10877 -54.0945
lclavicle -8.42847e-014 7.79236e-014
lhumerus 9.73915 -58.0562 89.8636
lradius 57.8682
lwrist 52.5929
lhand -14.2307 54.5858
lfingers 7.12502
lthumb 11.9067 -995.773
rfemur -35.1387 -5.68221 7.23034
rtibia 33.6222
rfoot -17.487 -11.7605
rtoes -1.18452
lfemur -44.2753 -5.95315 -17.0094
ltibia 28.5152
lfoot -5.56644 -10.7369
ltoes -3.02936
1440
root -1.33092 17.7078 -5.0905 23.0528 -33.9139 1.12273
lowerback 14.7132 -0.772926 -1.43903
upperback 7.61296 -1.26278 6.15078
thorax 0.0106803 -0.877856 7.52521
lowerneck -11.4897 -5.55481 -12.004
upperneck 32.1567 -8.12286 8.1322
head 13.6301 -4.06602 4.06831
rclavicle -4.45278e-014 -8.11041e-014
rhumerus 13.6233 -27.7859 -77.0254
rradius 31.2869
rwrist -9.35935
rhand -33.6092 -24.2348
rfingers 7.12502
rthumb -6.80229 -54.1055
lclavicle -4.45278e-014 -8.11041e-014
lhumerus 8.76771 -57.4124 90.2406
lradius 58.0472
lwrist 52.7083
lhand -14.8108 54.0795
lfingers 7.12502
lthumb 11.3472 -996.247
rfemur -34.9609 -5.78768 7.08497
rtibia 33.6765
rfoot -17.7937 -11.951
rtoes -0.919202
lfemur -44.1129 -6.06508 -17.2314
ltibia 28.1731
lfoot -5.31214 -11.0856
ltoes -2.73808
1441
root -1.33548 17.7095 -5.08886 22.8794 -33.5406 1.46643
lowerback 14.6826 -0.611914 -1.30487
upperback 7.5805 -1.03099 6.09512
thorax -0.0462962 -0.752477 7.35189
lowerneck -11.3473 -5.73049 -11.7813
upperneck 32.1267 -8.44691 8.14803
head 13.6177 -4.17599 3.98566
rclavicle 9.22361e-014 1.27222e-014
rhumerus 13.8264 -27.4966 -77.7062
rradius 31.6879
rwrist -8.97275
rhand -32.8998 -24.0283
rfingers 7.12502
rthumb -6.11745 -53.92
lclavicle 9.22361e-014 1.27222e-014
lhumerus 7.4784 -56.7751 91.0131
lradius 58.2486
lwrist 53.0835
lhand -14.8115 53.5757
lfingers 7.12502
lthumb 11.3466 -996.751
rfemur -34.8577 -5.88518 6.8243
rtibia 33.781
rfoot -18.1424 -12.158
rtoes -0.451796
lfemur -43.9808 -5.9928 -17.6866
ltibia 27.8454
lfoot -5.08657 -11.5866
ltoes -2.7086
1442
root -1.33606 17.7061 -5.08597 22.6421 -33.1031 1.90897
lowerback 14.7043 -0.34706 -1.16856
upperback 7.54369 -0.661516 6.00205
thorax -0.153555 -0.555959 7.11783
lowerneck -11.2561 -6.01893 -11.3119
upperneck 32.0839 -8.9834 8.15648
head 13.6229 -4.34584 3.82117
rclavicle -4.77083e-014 -7.95139e-015
rhumerus 14.035 -27.6397 -78.4021
rradius 32.1161
rwrist -8.58787
rhand -32.5407 -24.302
rfingers 7.12502
rthumb -5.7708 -54.2034
lclavicle -4.77083e-014 -7.95139e-015
lhumerus 6.36795 -56.412 91.6197
lradius 58.5535
lwrist 53.5702
lhand -14.6706 53.5791
lfingers 7.12502
lthumb 11.4824 -996.755
rfemur -34.7455 -6.16092 6.51808
rtibia 33.9092
rfoot -18.4593 -12.373
rtoes -0.429732
lfemur -43.8737 -6.10622 -18.1553
ltibia 27.5245
lfoot -4.83426 -11.9563
ltoes -3.18146
